<?xml version="1.0" encoding="UTF-8"?>
<!DOCTYPE svg PUBLIC "-//W3C//DTD SVG 1.1//EN" "http://www.w3.org/Graphics/SVG/1.1/DTD/svg11.dtd">
<!-- Creator: CorelDRAW 2021 (64-Bit) -->
<svg xmlns="http://www.w3.org/2000/svg" xml:space="preserve" width="155px" height="56px" version="1.1" style="shape-rendering:geometricPrecision; text-rendering:geometricPrecision; image-rendering:optimizeQuality; fill-rule:evenodd; clip-rule:evenodd"
viewBox="0 0 155000 56030"
 xmlns:xlink="http://www.w3.org/1999/xlink"
 xmlns:xodm="http://www.corel.com/coreldraw/odm/2003">
 <defs>
  <style type="text/css">
   <![CDATA[
    .fil0 {fill:black;fill-rule:nonzero}
   ]]>
  </style>
 </defs>
 <g id="Слой_x0020_1">
  <metadata id="CorelCorpID_0Corel-Layer"/>
  <path class="fil0" d="M2890 49180c0,1800 0,3340 -100,4160 -80,570 -180,1000 -570,1080 -170,30 -410,70 -700,70 -230,0 -310,60 -310,160 0,140 140,200 390,200 780,0 2010,-60 2460,-60 510,0 1740,60 3030,60 210,0 370,-60 370,-200 0,-100 -100,-160 -320,-160 -290,0 -720,-40 -990,-70 -590,-80 -700,-510 -760,-1060 -100,-840 -100,-2380 -100,-4180l0 -7800c0,-220 60,-330 160,-370 170,-60 460,-80 760,-80 450,0 1250,120 1950,760 1090,980 1150,2280 1150,2930 0,1990 -1520,3220 -2610,3220 -410,0 -550,60 -550,210 0,140 140,160 230,180 100,20 320,20 410,20 2780,0 4810,-1950 4810,-4730 0,-1030 -550,-1910 -980,-2320 -310,-290 -1190,-1110 -3630,-1110 -900,0 -2030,60 -2830,60 -550,0 -1780,-60 -2810,-60 -300,0 -430,40 -430,170 0,140 110,180 330,180 270,0 600,20 760,60 640,140 800,450 840,1110 40,630 40,1170 40,4140l0 3430zm21670 1470c80,0 140,20 180,120l1330 3350c70,200 -40,350 -160,370 -180,20 -210,80 -210,180 0,120 190,120 500,140 1450,40 2700,40 3300,40 650,0 750,-40 750,-180 0,-120 -80,-180 -240,-180 -190,0 -390,-20 -640,-50 -320,-60 -800,-280 -1470,-1780 -1090,-2520 -3960,-9230 -4370,-10150 -180,-370 -260,-530 -510,-530 -180,0 -310,200 -510,670l-4490 10360c-350,840 -640,1350 -1420,1460 -160,0 -360,20 -510,20 -140,0 -200,80 -200,180 0,140 100,180 320,180 890,0 1810,-60 1990,-60 540,0 1340,60 1910,60 180,0 270,-40 270,-180 0,-100 -30,-180 -250,-180l-250 0c-530,0 -690,-170 -690,-460 0,-200 80,-610 260,-1020l910 -2240c40,-100 60,-120 160,-120l4040 0zm-3690 -920c-60,0 -90,-40 -60,-120l1660 -4130c20,-60 40,-160 100,-160 40,0 60,100 80,160l1620 4150c20,60 0,100 -80,100l-3320 0zm18120 300c0,1520 0,2830 -70,3530 -60,490 -160,800 -510,880 -140,30 -350,50 -610,50 -210,0 -270,100 -270,180 0,120 120,180 330,180 680,0 1860,-60 2250,-60 480,0 1630,60 2770,60 190,0 330,-60 330,-180 0,-80 -80,-180 -280,-180 -250,0 -640,-20 -870,-50 -510,-80 -610,-390 -660,-860 -80,-720 -100,-2030 -100,-3550l0 -6710 2160 30c1540,20 1990,530 2030,960l20 180c20,250 60,330 200,330 100,0 130,-100 150,-270 0,-440 40,-1670 40,-2020 0,-260 -20,-350 -130,-350 -60,0 -200,40 -480,80 -250,40 -620,80 -1170,80l-6960 0c-570,0 -1210,-20 -1720,-80 -430,-60 -610,-200 -740,-200 -100,0 -160,100 -200,310 -40,140 -370,1750 -370,2020 0,180 40,270 160,270 110,0 150,-80 190,-210 40,-120 120,-330 300,-570 250,-370 660,-490 1660,-510l2550 -50 0 6710zm15940 -10c0,1530 0,2830 -80,3540 -60,490 -160,800 -510,880 -150,30 -350,50 -600,50 -220,0 -280,100 -280,180 0,120 120,180 340,180 680,0 1770,-60 2100,-60 260,0 1680,60 2680,60 210,0 350,-60 350,-180 0,-80 -80,-180 -210,-180 -220,0 -590,-20 -840,-50 -530,-80 -610,-390 -670,-880 -80,-710 -100,-1990 -100,-3540l0 -230c0,-100 60,-140 140,-140l1540 40c120,0 220,20 320,120 210,250 930,1370 1620,2260 950,1290 1600,2070 2340,2440 450,240 920,340 1880,340l1640 0c210,0 330,-40 330,-180 0,-80 -80,-180 -220,-180 -130,0 -230,0 -410,-40 -270,-50 -880,-130 -1830,-1090 -1040,-1030 -2250,-2540 -3770,-4410 1680,-1350 2380,-2440 2380,-3670 0,-1110 -720,-1950 -1210,-2280 -920,-610 -2170,-710 -3260,-710 -530,0 -2090,40 -2680,40 -350,0 -1440,-40 -2340,-40 -250,0 -390,40 -390,160 0,120 120,180 290,180 260,0 550,20 690,50 540,160 700,340 740,900 20,530 20,1000 20,3520l0 2920zm2180 -6570c0,-140 40,-200 160,-240 180,-40 590,-60 1020,-60 1010,0 2610,610 2610,2950 0,1370 -580,2090 -1110,2460 -290,210 -530,270 -1210,270 -430,0 -940,-40 -1310,-150 -120,-60 -160,-120 -160,-300l0 -4930zm17070 6570c0,1600 0,2930 -80,3620 -60,480 -150,720 -500,800 -160,30 -360,50 -610,50 -210,0 -270,100 -270,180 0,120 110,180 330,180 680,0 1850,-60 2240,-60 470,0 1640,60 2780,60 190,0 330,-60 330,-180 0,-80 -80,-180 -270,-180 -260,0 -650,-20 -880,-50 -510,-80 -630,-340 -690,-790 -70,-700 -70,-2030 -70,-3630l0 -2920c0,-2520 0,-2990 30,-3520 40,-580 180,-820 650,-900 190,-30 330,-50 510,-50 170,0 270,-40 270,-200 0,-100 -140,-140 -350,-140 -670,0 -1780,40 -2210,40 -490,0 -1660,-40 -2300,-40 -280,0 -410,40 -410,140 0,160 100,200 270,200 220,0 430,20 630,70 370,120 540,320 580,880 20,530 20,1000 20,3520l0 2920zm19780 5040c1120,0 2420,-100 3110,-370 290,-120 370,-200 450,-490 170,-560 370,-2010 370,-2200 0,-140 -80,-300 -200,-300 -130,0 -170,80 -210,330 -60,320 -300,790 -590,1120 -680,760 -1520,880 -3040,880 -2310,0 -5360,-1880 -5360,-5820 0,-1620 320,-3220 1590,-4320 780,-660 1730,-930 3240,-930 1580,0 2730,410 3320,970 430,430 640,1020 660,1550 0,210 40,350 180,350 150,0 210,-180 230,-410 20,-330 20,-1250 60,-1800 40,-580 80,-780 80,-920 0,-90 -60,-170 -260,-190 -500,-60 -1070,-180 -1710,-270 -780,-100 -1430,-180 -2500,-180 -2560,0 -4200,660 -5450,1760 -1640,1460 -2010,3410 -2010,4540 0,1610 450,3480 2150,4900 1560,1310 3550,1800 5890,1800zm13460 -5040c0,1600 0,2930 -80,3620 -60,480 -160,720 -510,800 -160,30 -350,50 -600,50 -220,0 -280,100 -280,180 0,120 120,180 330,180 690,0 1860,-60 2250,-60 470,0 1640,60 2770,60 200,0 330,-60 330,-180 0,-80 -70,-180 -270,-180 -250,0 -640,-20 -880,-50 -510,-80 -620,-340 -680,-790 -80,-700 -80,-2030 -80,-3630l0 -2920c0,-2520 0,-2990 40,-3520 40,-580 180,-820 640,-900 200,-30 340,-50 510,-50 180,0 280,-40 280,-200 0,-100 -140,-140 -360,-140 -660,0 -1770,40 -2200,40 -490,0 -1660,-40 -2310,-40 -270,0 -410,40 -410,140 0,160 100,200 280,200 210,0 430,20 620,70 370,120 550,320 590,880 20,530 20,1000 20,3520l0 2920zm18590 630c70,0 130,20 170,120l1330 3350c80,200 -40,350 -160,370 -170,20 -210,80 -210,180 0,120 190,120 510,140 1440,40 2690,40 3300,40 640,0 740,-40 740,-180 0,-120 -80,-180 -240,-180 -190,0 -390,-20 -640,-50 -310,-60 -800,-280 -1460,-1780 -1100,-2520 -3970,-9230 -4380,-10150 -170,-370 -250,-530 -510,-530 -170,0 -310,200 -500,670l-4490 10360c-360,840 -650,1350 -1430,1460 -160,0 -350,20 -510,20 -130,0 -190,80 -190,180 0,140 90,180 310,180 900,0 1820,-60 1990,-60 550,0 1350,60 1910,60 180,0 280,-40 280,-180 0,-100 -40,-180 -260,-180l-250 0c-530,0 -680,-170 -680,-460 0,-200 70,-610 250,-1020l920 -2240c40,-100 60,-120 150,-120l4050 0zm-3690 -920c-60,0 -100,-40 -60,-120l1660 -4130c20,-60 40,-160 90,-160 40,0 60,100 80,160l1620 4150c20,60 0,100 -70,100l-3320 0zm18380 -5680l60 0c350,370 2520,2750 4640,4860 2030,2010 4530,4570 5760,5740 210,210 450,430 660,430 180,0 260,-180 260,-610l210 -12310c20,-1100 180,-1510 720,-1660 240,-60 390,-60 590,-60 230,0 350,-60 350,-180 0,-150 -200,-170 -450,-170 -960,0 -1700,60 -1910,60 -410,0 -1350,-60 -2360,-60 -300,0 -510,20 -510,170 0,120 80,180 310,180 280,0 740,0 1030,120 470,190 650,560 670,1750l190 8770 -90 0c-340,-310 -2970,-3120 -4300,-4450 -2840,-2830 -5810,-5960 -6050,-6210 -330,-350 -510,-600 -720,-600 -200,0 -260,270 -260,660l-170 11500c-20,1690 -100,2260 -610,2420 -270,70 -620,90 -880,90 -190,0 -310,40 -310,160 0,180 180,200 430,200 1020,0 1930,-60 2110,-60 370,0 1150,60 2420,60 280,0 450,-40 450,-200 0,-120 -110,-160 -330,-160 -310,0 -680,-20 -1010,-130 -390,-140 -650,-650 -690,-2170l-210 -8140zm-54540 -13690l-22060 0 680 2300 20700 0 680 -2300zm-11030 -29340l5090 26180 -5090 -5090 -5090 5090 5090 -26180zm11030 22180l0 7160 4760 -16100 -10700 12940 5940 -4000zm-22060 0l0 7160 -4760 -16100 10700 12940 -5940 -4000z"/>
 </g>
</svg>
