<?xml version="1.0" encoding="UTF-8"?>
<!DOCTYPE svg PUBLIC "-//W3C//DTD SVG 1.1//EN" "http://www.w3.org/Graphics/SVG/1.1/DTD/svg11.dtd">
<!-- Creator: CorelDRAW 2021 (64-Bit) -->
<svg xmlns="http://www.w3.org/2000/svg" xml:space="preserve" width="147px" height="27px" version="1.1" style="shape-rendering:geometricPrecision; text-rendering:geometricPrecision; image-rendering:optimizeQuality; fill-rule:evenodd; clip-rule:evenodd"
viewBox="0 0 147000 27000"
 xmlns:xlink="http://www.w3.org/1999/xlink"
 xmlns:xodm="http://www.corel.com/coreldraw/odm/2003">
 <defs>
  <style type="text/css">
   <![CDATA[
    .fil0 {fill:black;fill-rule:nonzero}
   ]]>
  </style>
 </defs>
 <g id="Слой_x0020_1">
  <metadata id="CorelCorpID_0Corel-Layer"/>
  <path class="fil0" d="M34810 20360c0,1280 0,2380 -70,2960 -60,400 -130,710 -410,770 -120,20 -290,50 -500,50 -160,0 -220,40 -220,110 0,100 100,140 280,140 550,0 1430,-40 1750,-40 360,0 1230,40 2150,40 150,0 260,-40 260,-140 0,-70 -70,-110 -230,-110 -200,0 -510,-30 -700,-50 -420,-60 -500,-370 -540,-760 -70,-590 -70,-1690 -70,-2970l0 -5530c0,-160 40,-240 110,-270 130,-40 330,-50 540,-50 320,0 890,80 1390,540 770,690 820,1620 820,2080 0,1410 -1080,2280 -1860,2280 -290,0 -390,50 -390,150 0,100 100,120 170,130 70,10 220,10 290,10 1970,0 3410,-1380 3410,-3350 0,-740 -390,-1360 -690,-1650 -220,-210 -850,-790 -2580,-790 -640,0 -1440,40 -2010,40 -390,0 -1270,-40 -2000,-40 -210,0 -300,30 -300,120 0,100 80,130 230,130 190,0 430,10 540,40 460,100 570,320 600,790 30,450 30,830 30,2940l0 2430 0 0zm15380 1050c60,0 100,10 130,80l950 2380c50,140 -30,250 -120,270 -120,10 -150,50 -150,120 0,90 140,90 360,100 1030,30 1920,30 2340,30 460,0 530,-30 530,-130 0,-80 -50,-120 -170,-120 -130,0 -270,-20 -450,-40 -230,-40 -570,-200 -1040,-1260 -780,-1790 -2820,-6560 -3110,-7210 -120,-260 -180,-380 -360,-380 -130,0 -220,140 -360,480l-3190 7350c-250,600 -450,960 -1010,1040 -110,0 -250,20 -360,20 -100,0 -140,50 -140,120 0,100 70,130 220,130 640,0 1290,-40 1420,-40 380,0 950,40 1350,40 130,0 200,-30 200,-130 0,-70 -20,-120 -180,-120l-180 0c-380,0 -490,-130 -490,-330 0,-140 60,-430 190,-730l640 -1590c30,-70 40,-80 120,-80l2860 0 0 0zm-2620 -650c-40,0 -60,-30 -40,-90l1180 -2930c10,-50 30,-120 70,-120 30,0 40,70 60,120l1150 2940c10,50 0,80 -60,80l-2360 0zm12870 210c0,1080 0,2010 -50,2500 -40,350 -110,570 -360,630 -100,20 -250,40 -430,40 -150,0 -200,70 -200,120 0,90 90,130 240,130 480,0 1320,-40 1600,-40 340,0 1150,40 1960,40 140,0 240,-40 240,-130 0,-50 -60,-120 -200,-120 -180,0 -460,-20 -620,-40 -360,-60 -430,-280 -470,-610 -50,-510 -70,-1440 -70,-2520l0 -4770 1540 20c1090,20 1410,380 1440,690l10 120c20,180 40,240 140,240 70,0 100,-70 110,-190 0,-320 30,-1190 30,-1440 0,-180 -20,-250 -90,-250 -50,0 -150,30 -340,60 -180,30 -450,60 -840,60l-4940 0c-400,0 -860,-20 -1220,-60 -300,-40 -430,-140 -520,-140 -80,0 -120,70 -150,220 -30,100 -260,1240 -260,1430 0,130 30,200 110,200 80,0 110,-60 140,-150 30,-90 80,-240 210,-410 180,-260 470,-350 1180,-360l1810 -40 0 4770 0 0zm11320 -10c0,1090 0,2010 -60,2510 -40,350 -110,570 -360,630 -110,20 -250,40 -430,40 -150,0 -190,70 -190,120 0,90 80,130 240,130 480,0 1250,-40 1490,-40 180,0 1190,40 1900,40 150,0 250,-40 250,-130 0,-50 -60,-120 -150,-120 -160,0 -420,-20 -600,-40 -370,-60 -430,-280 -470,-630 -60,-500 -70,-1410 -70,-2510l0 -160c0,-70 40,-100 100,-100l1090 30c90,0 160,10 230,80 150,180 660,980 1150,1610 670,910 1130,1470 1660,1730 320,170 650,240 1330,240l1170 0c150,0 230,-30 230,-130 0,-50 -50,-120 -150,-120 -90,0 -170,0 -290,-30 -200,-40 -630,-100 -1300,-780 -740,-730 -1600,-1800 -2680,-3130 1190,-960 1690,-1730 1690,-2610 0,-780 -510,-1380 -860,-1610 -650,-440 -1540,-510 -2310,-510 -380,0 -1490,30 -1910,30 -250,0 -1020,-30 -1660,-30 -180,0 -280,30 -280,120 0,80 90,120 210,120 190,0 390,20 490,40 380,110 500,240 530,640 10,370 10,710 10,2500l0 2070 0 0zm1550 -4660c0,-100 30,-150 110,-170 130,-30 420,-50 730,-50 710,0 1850,440 1850,2100 0,970 -410,1480 -790,1740 -210,150 -380,200 -860,200 -300,0 -670,-30 -930,-110 -80,-40 -110,-90 -110,-210l0 -3500 0 0zm12120 4660c0,1140 0,2080 -60,2570 -40,340 -100,510 -350,570 -120,20 -260,40 -440,40 -150,0 -190,70 -190,120 0,90 80,130 240,130 480,0 1310,-40 1590,-40 330,0 1160,40 1970,40 140,0 240,-40 240,-130 0,-50 -60,-120 -200,-120 -180,0 -460,-20 -620,-40 -360,-60 -450,-240 -490,-560 -50,-500 -50,-1440 -50,-2580l0 -2070c0,-1790 0,-2130 20,-2500 30,-410 130,-580 460,-640 140,-20 240,-40 360,-40 130,0 200,-20 200,-140 0,-70 -100,-100 -250,-100 -480,0 -1270,30 -1570,30 -350,0 -1180,-30 -1640,-30 -190,0 -290,30 -290,100 0,120 70,140 200,140 150,0 300,20 440,50 270,90 390,230 410,630 20,370 20,710 20,2500l0 2070 0 0zm14040 3580c800,0 1720,-70 2210,-260 210,-90 270,-140 320,-350 120,-400 260,-1430 260,-1560 0,-100 -50,-220 -140,-220 -90,0 -120,60 -150,240 -40,230 -210,560 -420,790 -480,540 -1070,630 -2150,630 -1640,0 -3810,-1340 -3810,-4130 0,-1150 230,-2290 1130,-3070 550,-470 1230,-660 2300,-660 1120,0 1940,290 2360,690 300,300 450,720 470,1100 0,150 20,250 120,250 110,0 150,-130 170,-300 10,-230 10,-880 40,-1270 30,-410 60,-560 60,-660 0,-60 -50,-120 -190,-130 -350,-40 -760,-130 -1210,-190 -560,-70 -1020,-130 -1780,-130 -1820,0 -2980,470 -3870,1250 -1160,1040 -1420,2420 -1420,3220 0,1150 310,2470 1520,3480 1110,930 2520,1280 4180,1280l0 0zm9560 -3580c0,1140 0,2080 -60,2570 -40,340 -110,510 -360,570 -110,20 -250,40 -420,40 -160,0 -200,70 -200,120 0,90 80,130 230,130 490,0 1320,-40 1600,-40 330,0 1160,40 1970,40 140,0 230,-40 230,-130 0,-50 -50,-120 -190,-120 -180,0 -450,-20 -630,-40 -360,-60 -440,-240 -480,-560 -50,-500 -50,-1440 -50,-2580l0 -2070c0,-1790 0,-2130 20,-2500 30,-410 130,-580 460,-640 140,-20 240,-40 360,-40 130,0 200,-20 200,-140 0,-70 -100,-100 -260,-100 -470,0 -1250,30 -1560,30 -350,0 -1180,-30 -1640,-30 -190,0 -290,30 -290,100 0,120 70,140 200,140 150,0 300,20 440,50 260,90 390,230 420,630 10,370 10,710 10,2500l0 2070 0 0zm13200 450c50,0 100,10 120,80l950 2380c50,140 -30,250 -120,270 -120,10 -140,50 -140,120 0,90 130,90 360,100 1020,30 1910,30 2340,30 460,0 530,-30 530,-130 0,-80 -60,-120 -170,-120 -140,0 -280,-20 -460,-40 -220,-40 -570,-200 -1040,-1260 -780,-1790 -2810,-6560 -3110,-7210 -120,-260 -170,-380 -360,-380 -120,0 -220,140 -350,480l-3190 7350c-260,600 -460,960 -1020,1040 -110,0 -250,20 -360,20 -90,0 -130,50 -130,120 0,100 60,130 220,130 640,0 1290,-40 1410,-40 390,0 960,40 1360,40 120,0 190,-30 190,-130 0,-70 -20,-120 -180,-120l-180 0c-370,0 -480,-130 -480,-330 0,-140 50,-430 180,-730l650 -1590c30,-70 40,-80 110,-80l2870 0 0 0zm-2620 -650c-40,0 -70,-30 -40,-90l1180 -2930c10,-50 30,-120 60,-120 30,0 40,70 60,120l1150 2940c10,50 0,80 -50,80l-2360 0 0 0zm13050 -4040l50 0c250,260 1790,1950 3290,3450 1440,1430 3220,3250 4090,4080 150,150 320,300 470,300 130,0 180,-120 180,-430l150 -8740c20,-780 130,-1070 520,-1180 170,-40 270,-40 410,-40 170,0 250,-40 250,-130 0,-110 -140,-120 -320,-120 -680,0 -1200,40 -1350,40 -290,0 -960,-40 -1680,-40 -210,0 -360,10 -360,120 0,90 60,130 220,130 200,0 520,0 730,80 330,140 460,400 480,1250l130 6220 -60 0c-240,-220 -2110,-2210 -3060,-3160 -2010,-2010 -4120,-4230 -4290,-4410 -240,-240 -360,-420 -510,-420 -150,0 -190,190 -190,470l-120 8160c-10,1200 -70,1610 -430,1720 -190,50 -440,60 -630,60 -130,0 -220,30 -220,120 0,130 130,140 310,140 720,0 1370,-40 1500,-40 260,0 810,40 1710,40 200,0 320,-30 320,-140 0,-90 -70,-120 -230,-120 -220,0 -480,-10 -720,-90 -270,-100 -460,-460 -490,-1540l-150 -5780 0 0zm-108080 6050l-15660 0 480 1630 14700 0 480 -1630 0 0zm-7830 -20840l3620 18590 -3620 -3610 -3610 3610 3610 -18590zm7830 15750l0 5090 3380 -11440 -7590 9190 4210 -2840zm-15660 0l0 5090 -3380 -11440 7600 9190 -4220 -2840z"/>
 </g>
</svg>
