<svg width="40" height="41" viewBox="0 0 40 41" fill="none" xmlns="http://www.w3.org/2000/svg">
<g clip-path="url(#clip0_96_3791)">
<rect y="0.63623" width="40" height="40" rx="8" fill="#1C1C1C"/>
<path d="M20 40.6362C31.0457 40.6362 40 31.6819 40 20.6362C40 9.59054 31.0457 0.63623 20 0.63623C8.9543 0.63623 0 9.59054 0 20.6362C0 31.6819 8.9543 40.6362 20 40.6362Z" fill="#1C1C1C"/>
<g clip-path="url(#clip1_96_3791)">
<path d="M22.0913 20.548C22.0913 22.0519 20.8653 23.2215 19.4164 23.2215C17.9118 23.2215 16.7415 21.9962 16.7415 20.548C16.7415 19.0441 17.9675 17.8745 19.4164 17.8745C20.9211 17.8745 22.0913 19.0441 22.0913 20.548ZM19.4164 11.6362C14.5124 11.6362 10.5 15.6465 10.5 20.548C10.5 25.4495 14.5124 29.4598 19.4164 29.4598C21.1997 29.4598 22.9272 28.9028 24.4319 27.9002L23.2059 26.5077C22.0913 27.2318 20.7539 27.6217 19.3607 27.6217C15.4597 27.6217 12.2833 24.4469 12.2833 20.548C12.2833 16.6491 15.4597 13.4743 19.3607 13.4743C23.2616 13.4743 26.4381 16.6491 26.4381 20.548C26.4381 21.0493 26.3823 21.5506 26.2709 22.0519C26.048 22.9987 25.3793 23.2772 24.9334 23.2215C24.4319 23.1658 23.8746 22.8316 23.8746 21.9961V20.548C23.8746 18.0416 21.8684 16.0364 19.3607 16.0364C16.8529 16.0364 14.8467 18.0416 14.8467 20.548C14.8467 23.0544 16.8529 25.0596 19.3607 25.0596C20.5867 25.0596 21.7012 24.5583 22.5372 23.7228C23.0387 24.5026 23.8746 25.0039 24.7663 25.0596C25.4907 25.1153 26.2152 24.8925 26.8282 24.4469C27.3854 24.057 27.7755 23.4443 27.9984 22.7759C28.0542 22.6645 28.1099 22.386 28.1099 22.386C28.2214 21.8291 28.2771 21.2721 28.2771 20.548C28.3328 15.6465 24.3204 11.6362 19.4164 11.6362Z" fill="white"/>
</g>
</g>
<defs>
<clipPath id="clip0_96_3791">
<rect y="0.63623" width="40" height="40" rx="8" fill="white"/>
</clipPath>
<clipPath id="clip1_96_3791">
<rect width="18" height="18" fill="white" transform="translate(10.5 11.6362)"/>
</clipPath>
</defs>
</svg>
