<svg width="40" height="41" viewBox="0 0 40 41" fill="none" xmlns="http://www.w3.org/2000/svg">
<g clip-path="url(#clip0_96_3790)">
<rect y="0.63623" width="40" height="40" rx="8" fill="#1C1C1C"/>
<path d="M20 40.6362C31.0457 40.6362 40 31.6819 40 20.6362C40 9.59054 31.0457 0.63623 20 0.63623C8.9543 0.63623 0 9.59054 0 20.6362C0 31.6819 8.9543 40.6362 20 40.6362Z" fill="#1C1C1C"/>
<path fill-rule="evenodd" clip-rule="evenodd" d="M9.03412 20.4181C14.8597 17.8636 18.7537 16.2125 20.7164 15.4026C26.2615 13.0973 27.4142 12.6923 28.1618 12.6611C28.3176 12.6611 28.6914 12.6923 28.9407 12.8792C29.1276 13.035 29.1899 13.253 29.221 13.4088C29.2522 13.5646 29.2833 13.9072 29.2522 14.1876C28.9407 17.334 27.6634 25.0287 26.978 28.549C26.6977 30.0443 26.1369 30.5428 25.6073 30.6051C24.4547 30.6985 23.5513 29.8262 22.4298 29.1097C20.6852 27.9571 19.6883 27.2406 17.9749 26.1191C16.0123 24.8107 17.2896 24.0942 18.4111 22.9415C18.6914 22.63 23.8316 17.9882 23.9251 17.5521C23.9251 17.4898 23.9562 17.3029 23.8316 17.2094C23.707 17.116 23.5513 17.1471 23.4266 17.1783C23.2397 17.2094 20.436 19.0786 14.9843 22.7546C14.1743 23.3153 13.4578 23.5646 12.8036 23.5646C12.0871 23.5646 10.7164 23.1596 9.68832 22.8169C8.44222 22.4119 7.44533 22.1938 7.53879 21.5085C7.6011 21.1658 8.09954 20.792 9.03412 20.4181Z" fill="white"/>
</g>
<defs>
<clipPath id="clip0_96_3790">
<rect y="0.63623" width="40" height="40" rx="8" fill="white"/>
</clipPath>
</defs>
</svg>
